<svg xmlns="http://www.w3.org/2000/svg" width="715.3134765625" height="641.5230102539062" viewBox="-429.824462890625 -378.90191650390625 715.3134765625 641.5230102539062"><title>Neo4j Graph Visualization</title><desc>Created using Neo4j (http://www.neo4j.com/)</desc><g class="layer relationships"><g class="relationship" transform="translate(72.21323084894058 -33.749294440225825) rotate(259.0360314845393)"><path class="b-outline" fill="#A5ABB6" stroke="none" d="M 25 0.5 L 34.41769478295727 0.5 L 34.41769478295727 -0.5 L 25 -0.5 Z M 113.01769325707836 0.5 L 122.43538804003563 0.5 L 122.43538804003563 3.5 L 129.43538804003563 0 L 122.43538804003563 -3.5 L 122.43538804003563 -0.5 L 113.01769325707836 -0.5 Z"/><text text-anchor="middle" pointer-events="none" font-size="8px" fill="#000000" x="73.71769402001782" y="3" transform="rotate(180 73.71769402001782 0)" font-family="Helvetica Neue, Helvetica, Arial, sans-serif">ORIGINATES_FROM</text></g><g class="relationship" transform="translate(72.21323084894058 -33.749294440225825) rotate(222.23604523321558)"><path class="b-outline" fill="#A5ABB6" stroke="none" d="M 25 0.5 L 36.9628250887549 0.5 L 36.9628250887549 -0.5 L 25 -0.5 Z M 115.56282356287599 0.5 L 127.52564865163089 0.5 L 127.52564865163089 3.5 L 134.5256486516309 0 L 127.52564865163089 -3.5 L 127.52564865163089 -0.5 L 115.56282356287599 -0.5 Z"/><text text-anchor="middle" pointer-events="none" font-size="8px" fill="#000000" x="76.26282432581544" y="3" transform="rotate(180 76.26282432581544 0)" font-family="Helvetica Neue, Helvetica, Arial, sans-serif">ORIGINATES_FROM</text></g><g class="relationship" transform="translate(72.21323084894058 -33.749294440225825) rotate(311.3712306692489)"><path class="b-outline" fill="#A5ABB6" stroke="none" d="M 25 0.5 L 39.747922322175526 0.5 L 39.747922322175526 -0.5 L 25 -0.5 Z M 118.34792079629662 0.5 L 133.09584311847215 0.5 L 133.09584311847215 3.5 L 140.09584311847215 0 L 133.09584311847215 -3.5 L 133.09584311847215 -0.5 L 118.34792079629662 -0.5 Z"/><text text-anchor="middle" pointer-events="none" font-size="8px" fill="#000000" x="79.04792155923607" y="3" font-family="Helvetica Neue, Helvetica, Arial, sans-serif">ORIGINATES_FROM</text></g><g class="relationship" transform="translate(72.21323084894058 -33.749294440225825) rotate(520.0016943766723)"><path class="b-outline" fill="#A5ABB6" stroke="none" d="M 25 0.5 L 75.80093268668084 0.5 L 75.80093268668084 -0.5 L 25 -0.5 Z M 154.40093116080192 0.5 L 205.20186384748277 0.5 L 205.20186384748277 3.5 L 212.20186384748277 0 L 205.20186384748277 -3.5 L 205.20186384748277 -0.5 L 154.40093116080192 -0.5 Z"/><text text-anchor="middle" pointer-events="none" font-size="8px" fill="#000000" x="115.10093192374138" y="3" transform="rotate(180 115.10093192374138 0)" font-family="Helvetica Neue, Helvetica, Arial, sans-serif">ORIGINATES_FROM</text></g><g class="relationship" transform="translate(72.21323084894058 -33.749294440225825) rotate(460.8777248589889)"><path class="b-outline" fill="#A5ABB6" stroke="none" d="M 25 0.5 L 56.27298770442307 0.5 L 56.27298770442307 -0.5 L 25 -0.5 Z M 134.87298617854418 0.5 L 166.14597388296724 0.5 L 166.14597388296724 3.5 L 173.14597388296724 0 L 166.14597388296724 -3.5 L 166.14597388296724 -0.5 L 134.87298617854418 -0.5 Z"/><text text-anchor="middle" pointer-events="none" font-size="8px" fill="#000000" x="95.57298694148362" y="3" transform="rotate(180 95.57298694148362 0)" font-family="Helvetica Neue, Helvetica, Arial, sans-serif">ORIGINATES_FROM</text></g><g class="relationship" transform="translate(72.21323084894058 -33.749294440225825) rotate(430.9809623017441)"><path class="b-outline" fill="#A5ABB6" stroke="none" d="M 25 0.5 L 44.86860936401351 0.5 L 44.86860936401351 -0.5 L 25 -0.5 Z M 123.4686078381346 0.5 L 143.3372172021481 0.5 L 143.3372172021481 3.5 L 150.3372172021481 0 L 143.3372172021481 -3.5 L 143.3372172021481 -0.5 L 123.4686078381346 -0.5 Z"/><text text-anchor="middle" pointer-events="none" font-size="8px" fill="#000000" x="84.16860860107406" y="3" font-family="Helvetica Neue, Helvetica, Arial, sans-serif">ORIGINATES_FROM</text></g><g class="relationship" transform="translate(72.21323084894058 -33.749294440225825) rotate(459.12495419248506)"><path class="b-outline" fill="#A5ABB6" stroke="none" d="M 25 0.5 L 26.230753644982187 0.5 L 26.230753644982187 -0.5 L 25 -0.5 Z M 67.1307551708611 0.5 L 68.36150881584328 0.5 L 68.36150881584328 3.5 L 75.36150881584328 0 L 68.36150881584328 -3.5 L 68.36150881584328 -0.5 L 67.1307551708611 -0.5 Z"/><text text-anchor="middle" pointer-events="none" font-size="8px" fill="#000000" x="46.68075440792164" y="3" transform="rotate(180 46.68075440792164 0)" font-family="Helvetica Neue, Helvetica, Arial, sans-serif">ORIGIN…</text></g><g class="relationship" transform="translate(72.21323084894058 -33.749294440225825) rotate(399.71252959858145)"><path class="b-outline" fill="#A5ABB6" stroke="none" d="M 25 0.5 L 27.03137802674633 0.5 L 27.03137802674633 -0.5 L 25 -0.5 Z M 76.44804596497875 0.5 L 78.47942399172508 0.5 L 78.47942399172508 3.5 L 85.47942399172508 0 L 78.47942399172508 -3.5 L 78.47942399172508 -0.5 L 76.44804596497875 -0.5 Z"/><text text-anchor="middle" pointer-events="none" font-size="8px" fill="#000000" x="51.73971199586254" y="3" font-family="Helvetica Neue, Helvetica, Arial, sans-serif">ORIGINAT…</text></g><g class="relationship" transform="translate(72.21323084894058 -33.749294440225825) rotate(347.4088001690618)"><path class="b-outline" fill="#A5ABB6" stroke="none" d="M 25 0.5 L 25.443444752898266 0.5 L 25.443444752898266 -0.5 L 25 -0.5 Z M 84.19344475289827 0.5 L 84.63688950579653 0.5 L 84.63688950579653 3.5 L 91.63688950579653 0 L 84.63688950579653 -3.5 L 84.63688950579653 -0.5 L 84.19344475289827 -0.5 Z"/><text text-anchor="middle" pointer-events="none" font-size="8px" fill="#000000" x="54.818444752898266" y="3" font-family="Helvetica Neue, Helvetica, Arial, sans-serif">ORIGINATES…</text></g><g class="relationship" transform="translate(72.21323084894058 -33.749294440225825) rotate(284.62113131129126)"><path class="b-outline" fill="#A5ABB6" stroke="none" d="M 25 0.5 L 63.54307335231904 0.5 L 63.54307335231904 -0.5 L 25 -0.5 Z M 142.14307182644012 0.5 L 180.68614517875918 0.5 L 180.68614517875918 3.5 L 187.68614517875918 0 L 180.68614517875918 -3.5 L 180.68614517875918 -0.5 L 142.14307182644012 -0.5 Z"/><text text-anchor="middle" pointer-events="none" font-size="8px" fill="#000000" x="102.84307258937959" y="3" font-family="Helvetica Neue, Helvetica, Arial, sans-serif">ORIGINATES_FROM</text></g><g class="relationship" transform="translate(-312.0089973703642 -240.714551180891) rotate(429.3088873551367)"><path class="b-outline" fill="#A5ABB6" stroke="none" d="M 25 0.5 L 60.57545774912656 0.5 L 60.57545774912656 -0.5 L 25 -0.5 Z M 139.17545622324764 0.5 L 174.7509139723742 0.5 L 174.7509139723742 3.5 L 181.7509139723742 0 L 174.7509139723742 -3.5 L 174.7509139723742 -0.5 L 139.17545622324764 -0.5 Z"/><text text-anchor="middle" pointer-events="none" font-size="8px" fill="#000000" x="99.8754569861871" y="3" font-family="Helvetica Neue, Helvetica, Arial, sans-serif">ORIGINATES_FROM</text></g><g class="relationship" transform="translate(-256.1181584426164 -145.1017702686404) rotate(440.04819052276036)"><path class="b-outline" fill="#A5ABB6" stroke="none" d="M 25 0.5 L 25.69826448365427 0.5 L 25.69826448365427 -0.5 L 25 -0.5 Z M 66.59826600953318 0.5 L 67.29653049318745 0.5 L 67.29653049318745 3.5 L 74.29653049318745 0 L 67.29653049318745 -3.5 L 67.29653049318745 -0.5 L 66.59826600953318 -0.5 Z"/><text text-anchor="middle" pointer-events="none" font-size="8px" fill="#000000" x="46.14826524659372" y="3" font-family="Helvetica Neue, Helvetica, Arial, sans-serif">ORIGIN…</text></g><g class="relationship" transform="translate(-400.82445788694633 -115.78879789884849) rotate(382.934328180242)"><path class="b-outline" fill="#A5ABB6" stroke="none" d="M 25 0.5 L 45.08009081879702 0.5 L 45.08009081879702 -0.5 L 25 -0.5 Z M 123.68008929291811 0.5 L 143.76018011171513 0.5 L 143.76018011171513 3.5 L 150.76018011171513 0 L 143.76018011171513 -3.5 L 143.76018011171513 -0.5 L 123.68008929291811 -0.5 Z"/><text text-anchor="middle" pointer-events="none" font-size="8px" fill="#000000" x="84.38009005585756" y="3" font-family="Helvetica Neue, Helvetica, Arial, sans-serif">ORIGINATES_FROM</text></g><g class="relationship" transform="translate(-26.729216357452454 -43.32984188612896) rotate(181.0715204389619)"><path class="b-outline" fill="#A5ABB6" stroke="none" d="M 25 0.5 L 63.332827337917124 0.5 L 63.332827337917124 -0.5 L 25 -0.5 Z M 141.93282581203823 0.5 L 180.26565314995534 0.5 L 180.26565314995534 3.5 L 187.26565314995534 0 L 180.26565314995534 -3.5 L 180.26565314995534 -0.5 L 141.93282581203823 -0.5 Z"/><text text-anchor="middle" pointer-events="none" font-size="8px" fill="#000000" x="102.63282657497767" y="3" transform="rotate(180 102.63282657497767 0)" font-family="Helvetica Neue, Helvetica, Arial, sans-serif">ORIGINATES_FROM</text></g><g class="relationship" transform="translate(-26.729216357452454 -43.32984188612896) rotate(503.80628727845004)"><path class="b-outline" fill="#A5ABB6" stroke="none" d="M 25 0.5 L 33.998597475369536 0.5 L 33.998597475369536 -0.5 L 25 -0.5 Z M 112.59859594949063 0.5 L 121.59719342486017 0.5 L 121.59719342486017 3.5 L 128.59719342486017 0 L 121.59719342486017 -3.5 L 121.59719342486017 -0.5 L 112.59859594949063 -0.5 Z"/><text text-anchor="middle" pointer-events="none" font-size="8px" fill="#000000" x="73.29859671243008" y="3" transform="rotate(180 73.29859671243008 0)" font-family="Helvetica Neue, Helvetica, Arial, sans-serif">ORIGINATES_FROM</text></g><g class="relationship" transform="translate(-26.729216357452454 -43.32984188612896) rotate(383.55103142627996)"><path class="b-outline" fill="#A5ABB6" stroke="none" d="M 25 0.5 L 57.52121689417112 0.5 L 57.52121689417112 -0.5 L 25 -0.5 Z M 136.1212153682922 0.5 L 168.64243226246333 0.5 L 168.64243226246333 3.5 L 175.64243226246333 0 L 168.64243226246333 -3.5 L 168.64243226246333 -0.5 L 136.1212153682922 -0.5 Z"/><text text-anchor="middle" pointer-events="none" font-size="8px" fill="#000000" x="96.82121613123167" y="3" font-family="Helvetica Neue, Helvetica, Arial, sans-serif">ORIGINATES_FROM</text></g><g class="relationship" transform="translate(-26.729216357452454 -43.32984188612896) rotate(355.7409858514392)"><path class="b-outline" fill="#A5ABB6" stroke="none" d="M 25 0.5 L 63.88172556158038 0.5 L 63.88172556158038 -0.5 L 25 -0.5 Z M 142.48172403570146 0.5 L 181.36344959728186 0.5 L 181.36344959728186 3.5 L 188.36344959728186 0 L 181.36344959728186 -3.5 L 181.36344959728186 -0.5 L 142.48172403570146 -0.5 Z"/><text text-anchor="middle" pointer-events="none" font-size="8px" fill="#000000" x="103.18172479864093" y="3" font-family="Helvetica Neue, Helvetica, Arial, sans-serif">ORIGINATES_FROM</text></g><g class="relationship" transform="translate(-331.2355469491194 31.941148370267804) rotate(319.346772415171)"><path class="b-outline" fill="#A5ABB6" stroke="none" d="M 25 0.5 L 26.165791478317317 0.5 L 26.165791478317317 -0.5 L 25 -0.5 Z M 88.46579071537786 0.5 L 89.63158219369518 0.5 L 89.63158219369518 3.5 L 96.63158219369518 0 L 89.63158219369518 -3.5 L 89.63158219369518 -0.5 L 88.46579071537786 -0.5 Z"/><text text-anchor="middle" pointer-events="none" font-size="8px" fill="#000000" x="57.31579109684759" y="3" font-family="Helvetica Neue, Helvetica, Arial, sans-serif">ORIGINATES_…</text></g><g class="relationship" transform="translate(-331.2355469491194 31.941148370267804) rotate(364.88494946624945)"><path class="b-outline" fill="#A5ABB6" stroke="none" d="M 25 0.5 L 47.803870091924864 0.5 L 47.803870091924864 -0.5 L 25 -0.5 Z M 126.40386856604596 0.5 L 149.20773865797082 0.5 L 149.20773865797082 3.5 L 156.20773865797082 0 L 149.20773865797082 -3.5 L 149.20773865797082 -0.5 L 126.40386856604596 -0.5 Z"/><text text-anchor="middle" pointer-events="none" font-size="8px" fill="#000000" x="87.10386932898541" y="3" font-family="Helvetica Neue, Helvetica, Arial, sans-serif">ORIGINATES_FROM</text></g><g class="relationship" transform="translate(-206.69795743093138 202.2360284809209) rotate(289.88427323829643)"><path class="b-outline" fill="#A5ABB6" stroke="none" d="M 25 0.5 L 39.541101559522716 0.5 L 39.541101559522716 -0.5 L 25 -0.5 Z M 118.14110003364381 0.5 L 132.68220159316652 0.5 L 132.68220159316652 3.5 L 139.68220159316652 0 L 132.68220159316652 -3.5 L 132.68220159316652 -0.5 L 118.14110003364381 -0.5 Z"/><text text-anchor="middle" pointer-events="none" font-size="8px" fill="#000000" x="78.84110079658326" y="3" font-family="Helvetica Neue, Helvetica, Arial, sans-serif">ORIGINATES_FROM</text></g><g class="relationship" transform="translate(-64.25669778504998 156.14265242046727) rotate(231.5293154847423)"><path class="b-outline" fill="#A5ABB6" stroke="none" d="M 25 0.5 L 26.66419311624105 0.5 L 26.66419311624105 -0.5 L 25 -0.5 Z M 105.26419159036215 0.5 L 106.9283847066032 0.5 L 106.9283847066032 3.5 L 113.9283847066032 0 L 106.9283847066032 -3.5 L 106.9283847066032 -0.5 L 105.26419159036215 -0.5 Z"/><text text-anchor="middle" pointer-events="none" font-size="8px" fill="#000000" x="65.9641923533016" y="3" transform="rotate(180 65.9641923533016 0)" font-family="Helvetica Neue, Helvetica, Arial, sans-serif">ORIGINATES_FROM</text></g><g class="relationship" transform="translate(-64.25669778504998 156.14265242046727) rotate(352.8967875367355)"><path class="b-outline" fill="#A5ABB6" stroke="none" d="M 25 0.5 L 54.75333450523945 0.5 L 54.75333450523945 -0.5 L 25 -0.5 Z M 133.35333297936054 0.5 L 163.1066674846 0.5 L 163.1066674846 3.5 L 170.1066674846 0 L 163.1066674846 -3.5 L 163.1066674846 -0.5 L 133.35333297936054 -0.5 Z"/><text text-anchor="middle" pointer-events="none" font-size="8px" fill="#000000" x="94.0533337423" y="3" font-family="Helvetica Neue, Helvetica, Arial, sans-serif">ORIGINATES_FROM</text></g><g class="relationship" transform="translate(-64.25669778504998 156.14265242046727) rotate(323.01311739019457)"><path class="b-outline" fill="#A5ABB6" stroke="none" d="M 25 0.5 L 32.66183197496153 0.5 L 32.66183197496153 -0.5 L 25 -0.5 Z M 111.26183044908262 0.5 L 118.92366242404415 0.5 L 118.92366242404415 3.5 L 125.92366242404415 0 L 118.92366242404415 -3.5 L 118.92366242404415 -0.5 L 111.26183044908262 -0.5 Z"/><text text-anchor="middle" pointer-events="none" font-size="8px" fill="#000000" x="71.96183121202208" y="3" font-family="Helvetica Neue, Helvetica, Arial, sans-serif">ORIGINATES_FROM</text></g><g class="relationship" transform="translate(223.76226110502873 186.9027875705813) rotate(187.85492470822726)"><path class="b-outline" fill="#A5ABB6" stroke="none" d="M 25 0.5 L 52.56573205203924 0.5 L 52.56573205203924 -0.5 L 25 -0.5 Z M 131.16573052616033 0.5 L 158.73146257819957 0.5 L 158.73146257819957 3.5 L 165.73146257819957 0 L 158.73146257819957 -3.5 L 158.73146257819957 -0.5 L 131.16573052616033 -0.5 Z"/><text text-anchor="middle" pointer-events="none" font-size="8px" fill="#000000" x="91.86573128909978" y="3" transform="rotate(180 91.86573128909978 0)" font-family="Helvetica Neue, Helvetica, Arial, sans-serif">ORIGINATES_FROM</text></g><g class="relationship" transform="translate(223.76226110502873 186.9027875705813) rotate(246.07990742583615)"><path class="b-outline" fill="#A5ABB6" stroke="none" d="M 25 0.5 L 39.28120279664181 0.5 L 39.28120279664181 -0.5 L 25 -0.5 Z M 117.8812012707629 0.5 L 132.1624040674047 0.5 L 132.1624040674047 3.5 L 139.1624040674047 0 L 132.1624040674047 -3.5 L 132.1624040674047 -0.5 L 117.8812012707629 -0.5 Z"/><text text-anchor="middle" pointer-events="none" font-size="8px" fill="#000000" x="78.58120203370235" y="3" transform="rotate(180 78.58120203370235 0)" font-family="Helvetica Neue, Helvetica, Arial, sans-serif">ORIGINATES_FROM</text></g><g class="relationship" transform="translate(101.11625430104844 233.62109645835577) rotate(285.53077263910905)"><path class="b-outline" fill="#A5ABB6" stroke="none" d="M 25 0.5 L 26.21930831136055 0.5 L 26.21930831136055 -0.5 L 25 -0.5 Z M 72.23597472371407 0.5 L 73.45528303507461 0.5 L 73.45528303507461 3.5 L 80.45528303507461 0 L 73.45528303507461 -3.5 L 73.45528303507461 -0.5 L 72.23597472371407 -0.5 Z"/><text text-anchor="middle" pointer-events="none" font-size="8px" fill="#000000" x="49.22764151753731" y="3" font-family="Helvetica Neue, Helvetica, Arial, sans-serif">ORIGINA…</text></g><g class="relationship" transform="translate(101.11625430104844 233.62109645835577) rotate(255.08614002428317)"><path class="b-outline" fill="#A5ABB6" stroke="none" d="M 25 0.5 L 44.27262940274689 0.5 L 44.27262940274689 -0.5 L 25 -0.5 Z M 122.87262787686798 0.5 L 142.14525727961487 0.5 L 142.14525727961487 3.5 L 149.14525727961487 0 L 142.14525727961487 -3.5 L 142.14525727961487 -0.5 L 122.87262787686798 -0.5 Z"/><text text-anchor="middle" pointer-events="none" font-size="8px" fill="#000000" x="83.57262863980743" y="3" transform="rotate(180 83.57262863980743 0)" font-family="Helvetica Neue, Helvetica, Arial, sans-serif">ORIGINATES_FROM</text></g><g class="relationship" transform="translate(256.4889983869393 27.310499703793557) rotate(534.5176625649613)"><path class="b-outline" fill="#A5ABB6" stroke="none" d="M 25 0.5 L 25.922321581288884 0.5 L 25.922321581288884 -0.5 L 25 -0.5 Z M 66.82232310716779 0.5 L 67.74464468845667 0.5 L 67.74464468845667 3.5 L 74.74464468845667 0 L 67.74464468845667 -3.5 L 67.74464468845667 -0.5 L 66.82232310716779 -0.5 Z"/><text text-anchor="middle" pointer-events="none" font-size="8px" fill="#000000" x="46.37232234422834" y="3" transform="rotate(180 46.37232234422834 0)" font-family="Helvetica Neue, Helvetica, Arial, sans-serif">ORIGIN…</text></g><g class="relationship" transform="translate(256.4889983869393 27.310499703793557) rotate(230.8366932141148)"><path class="b-outline" fill="#A5ABB6" stroke="none" d="M 25 0.5 L 25.09720762943912 0.5 L 25.09720762943912 -0.5 L 25 -0.5 Z M 79.4472061035602 0.5 L 79.54441373299933 0.5 L 79.54441373299933 3.5 L 86.54441373299933 0 L 79.54441373299933 -3.5 L 79.54441373299933 -0.5 L 79.4472061035602 -0.5 Z"/><text text-anchor="middle" pointer-events="none" font-size="8px" fill="#000000" x="52.272206866499666" y="3" transform="rotate(180 52.272206866499666 0)" font-family="Helvetica Neue, Helvetica, Arial, sans-serif">ORIGINATE…</text></g><g class="relationship" transform="translate(230.74977987161904 -349.9019035952224) rotate(493.5346445066448)"><path class="b-outline" fill="#A5ABB6" stroke="none" d="M 25 0.5 L 33.31065816453932 0.5 L 33.31065816453932 -0.5 L 25 -0.5 Z M 111.91065663866041 0.5 L 120.22131480319973 0.5 L 120.22131480319973 3.5 L 127.22131480319973 0 L 120.22131480319973 -3.5 L 120.22131480319973 -0.5 L 111.91065663866041 -0.5 Z"/><text text-anchor="middle" pointer-events="none" font-size="8px" fill="#000000" x="72.61065740159987" y="3" transform="rotate(180 72.61065740159987 0)" font-family="Helvetica Neue, Helvetica, Arial, sans-serif">ORIGINATES_FROM</text></g><g class="relationship" transform="translate(-206.69795743093138 202.2360284809209) rotate(342.0686432606683)"><path class="b-outline" fill="#A5ABB6" stroke="none" d="M 24.018736134675446,-6.953439040707552 L 24.277555179777966,-5.987513214418485 A 190.27430964590718 190.27430964590718 0 0 1 45.70550524238459,-10.426382822871915 L 45.5593022940241,-11.415637440192825 A 191.27430964590718 191.27430964590718 0 0 0 24.018736134675446,-6.953439040707552 Z M 97.10041220760274,-12.012402405314248 L 96.97715340749846,-11.020027844880104 A 190.27430964590718 190.27430964590718 0 0 1 118.50213545461935,-7.07848561403462 L 117.79298088884877,-4.163507088925602 L 125.42194444083549,-5.909621381421451 L 119.44767487564678,-10.96512364751331 L 118.73852030987621,-8.050145122404293 A 191.27430964590718 191.27430964590718 0 0 0 97.10041220760274,-12.012402405314248"/><text text-anchor="middle" pointer-events="none" font-size="8px" fill="#000000" x="71.31545198756525" y="-9.958166780899859" font-family="Helvetica Neue, Helvetica, Arial, sans-serif">RELATES_TO</text></g><g class="relationship" transform="translate(-312.0089973703642 -240.714551180891) rotate(485.4107705522412)"><path class="b-outline" fill="#A5ABB6" stroke="none" d="M 24.018736134675446,-6.953439040707552 L 24.277555179777966,-5.987513214418485 A 197.2833642289123 197.2833642289123 0 0 1 47.480278792016904,-10.732994587565543 L 47.33907089827997,-11.722974552386233 A 198.2833642289123 198.2833642289123 0 0 0 24.018736134675446,-6.953439040707552 Z M 98.88649533282313,-12.30651345997012 L 98.7677347484429,-11.313590540707168 A 197.2833642289123 197.2833642289123 0 0 1 122.07194016105561,-7.094587509706985 L 121.36128176540834,-4.1799752465241 L 128.99114517442354,-5.922153297060521 L 123.0194846885853,-10.980737193950832 L 122.30882629293802,-8.066124930767947 A 198.2833642289123 198.2833642289123 0 0 0 98.88649533282313,-12.30651345997012"/><text text-anchor="middle" pointer-events="none" font-size="8px" fill="#000000" x="73.09939823911665" y="-10.197108879585215" transform="rotate(180 73.09939823911665 -13.197108879585215)" font-family="Helvetica Neue, Helvetica, Arial, sans-serif">RELATES_TO</text></g><g class="relationship" transform="translate(-312.0089973703642 -240.714551180891) rotate(419.69140564781617)"><path class="b-outline" fill="#A5ABB6" stroke="none" d="M 25 0.5 L 26.091728687271186 0.5 L 26.091728687271186 -0.5 L 25 -0.5 Z M 77.65839433668525 0.5 L 78.75012302395643 0.5 L 78.75012302395643 3.5 L 85.75012302395643 0 L 78.75012302395643 -3.5 L 78.75012302395643 -0.5 L 77.65839433668525 -0.5 Z"/><text text-anchor="middle" pointer-events="none" font-size="8px" fill="#000000" x="51.87506151197822" y="3" font-family="Helvetica Neue, Helvetica, Arial, sans-serif">RELATES_TO</text></g><g class="relationship" transform="translate(-256.1181584426164 -145.1017702686404) rotate(528.5486205608811)"><path class="b-outline" fill="#A5ABB6" stroke="none" d="M 24.018736134675446,-6.953439040707552 L 24.277555179777966,-5.987513214418485 A 186.20705909005878 186.20705909005878 0 0 1 44.67670725660294,-10.246241591198498 L 44.527439117768466,-11.235038346213855 A 187.20705909005878 187.20705909005878 0 0 0 24.018736134675446,-6.953439040707552 Z M 96.06447173679652,-11.839748187734159 L 95.93844559522549,-10.847721266909588 A 186.20705909005878 186.20705909005878 0 0 1 116.43190736950707,-7.068806429726433 L 115.72365679330153,-4.1536081309301895 L 123.3520784960659,-5.9020881350462 L 117.37624147111447,-10.95573749478809 L 116.66799089490893,-8.040539195991848 A 187.20705909005878 187.20705909005878 0 0 0 96.06447173679652,-11.839748187734159"/><text text-anchor="middle" pointer-events="none" font-size="8px" fill="#000000" x="70.28091166467418" y="-9.819513766796803" transform="rotate(180 70.28091166467418 -12.819513766796803)" font-family="Helvetica Neue, Helvetica, Arial, sans-serif">RELATES_TO</text></g><g class="relationship" transform="translate(-256.1181584426164 -145.1017702686404) rotate(383.92520312815316)"><path class="b-outline" fill="#A5ABB6" stroke="none" d="M 25 0.5 L 96.19257338605294 0.5 L 96.19257338605294 -0.5 L 25 -0.5 Z M 147.759239035467 0.5 L 218.95181242151995 0.5 L 218.95181242151995 3.5 L 225.95181242151995 0 L 218.95181242151995 -3.5 L 218.95181242151995 -0.5 L 147.759239035467 -0.5 Z"/><text text-anchor="middle" pointer-events="none" font-size="8px" fill="#000000" x="121.97590621075997" y="3" font-family="Helvetica Neue, Helvetica, Arial, sans-serif">RELATES_TO</text></g><g class="relationship" transform="translate(-256.1181584426164 -145.1017702686404) rotate(472.9909853409882)"><path class="b-outline" fill="#A5ABB6" stroke="none" d="M 25 0.5 L 66.87645229389123 0.5 L 66.87645229389123 -0.5 L 25 -0.5 Z M 118.4431179433053 0.5 L 160.31957023719653 0.5 L 160.31957023719653 3.5 L 167.31957023719653 0 L 160.31957023719653 -3.5 L 160.31957023719653 -0.5 L 118.4431179433053 -0.5 Z"/><text text-anchor="middle" pointer-events="none" font-size="8px" fill="#000000" x="92.65978511859826" y="3" transform="rotate(180 92.65978511859826 0)" font-family="Helvetica Neue, Helvetica, Arial, sans-serif">RELATES_TO</text></g><g class="relationship" transform="translate(-400.82445788694633 -115.78879789884849) rotate(305.4107705522412)"><path class="b-outline" fill="#A5ABB6" stroke="none" d="M 24.018736134675446,-6.953439040707552 L 24.277555179777966,-5.987513214418485 A 197.2833642289123 197.2833642289123 0 0 1 47.480278792016904,-10.732994587565543 L 47.33907089827997,-11.722974552386233 A 198.2833642289123 198.2833642289123 0 0 0 24.018736134675446,-6.953439040707552 Z M 98.88649533282313,-12.30651345997012 L 98.7677347484429,-11.313590540707168 A 197.2833642289123 197.2833642289123 0 0 1 122.07194016105561,-7.094587509706985 L 121.36128176540834,-4.1799752465241 L 128.99114517442354,-5.922153297060521 L 123.0194846885853,-10.980737193950832 L 122.30882629293802,-8.066124930767947 A 198.2833642289123 198.2833642289123 0 0 0 98.88649533282313,-12.30651345997012"/><text text-anchor="middle" pointer-events="none" font-size="8px" fill="#000000" x="73.09939823911665" y="-10.197108879585215" font-family="Helvetica Neue, Helvetica, Arial, sans-serif">RELATES_TO</text></g><g class="relationship" transform="translate(-400.82445788694633 -115.78879789884849) rotate(348.5486205608811)"><path class="b-outline" fill="#A5ABB6" stroke="none" d="M 24.018736134675446,-6.953439040707552 L 24.277555179777966,-5.987513214418485 A 186.20705909005878 186.20705909005878 0 0 1 44.67670725660294,-10.246241591198498 L 44.527439117768466,-11.235038346213855 A 187.20705909005878 187.20705909005878 0 0 0 24.018736134675446,-6.953439040707552 Z M 96.06447173679652,-11.839748187734159 L 95.93844559522549,-10.847721266909588 A 186.20705909005878 186.20705909005878 0 0 1 116.43190736950707,-7.068806429726433 L 115.72365679330153,-4.1536081309301895 L 123.3520784960659,-5.9020881350462 L 117.37624147111447,-10.95573749478809 L 116.66799089490893,-8.040539195991848 A 187.20705909005878 187.20705909005878 0 0 0 96.06447173679652,-11.839748187734159"/><text text-anchor="middle" pointer-events="none" font-size="8px" fill="#000000" x="70.28091166467418" y="-9.819513766796803" font-family="Helvetica Neue, Helvetica, Arial, sans-serif">RELATES_TO</text></g><g class="relationship" transform="translate(101.11625430104844 233.62109645835577) rotate(263.8302239010421)"><path class="b-outline" fill="#A5ABB6" stroke="none" d="M 25 0.5 L 105.18070576362095 0.5 L 105.18070576362095 -0.5 L 25 -0.5 Z M 156.747371413035 0.5 L 236.92807717665596 0.5 L 236.92807717665596 3.5 L 243.92807717665596 0 L 236.92807717665596 -3.5 L 236.92807717665596 -0.5 L 156.747371413035 -0.5 Z"/><text text-anchor="middle" pointer-events="none" font-size="8px" fill="#000000" x="130.96403858832798" y="3" transform="rotate(180 130.96403858832798 0)" font-family="Helvetica Neue, Helvetica, Arial, sans-serif">RELATES_TO</text></g><g class="relationship" transform="translate(101.11625430104844 233.62109645835577) rotate(205.10343565419805)"><path class="b-outline" fill="#A5ABB6" stroke="none" d="M 25 0.5 L 62.028115762262644 0.5 L 62.028115762262644 -0.5 L 25 -0.5 Z M 113.5947814116767 0.5 L 150.62289717393935 0.5 L 150.62289717393935 3.5 L 157.62289717393935 0 L 150.62289717393935 -3.5 L 150.62289717393935 -0.5 L 113.5947814116767 -0.5 Z"/><text text-anchor="middle" pointer-events="none" font-size="8px" fill="#000000" x="87.81144858696968" y="3" transform="rotate(180 87.81144858696968 0)" font-family="Helvetica Neue, Helvetica, Arial, sans-serif">RELATES_TO</text></g><g class="relationship" transform="translate(256.4889983869393 27.310499703793557) rotate(194.00497282089998)"><path class="b-outline" fill="#A5ABB6" stroke="none" d="M 25 0.5 L 116.66410208161577 0.5 L 116.66410208161577 -0.5 L 25 -0.5 Z M 168.23076773102983 0.5 L 259.8948698126456 0.5 L 259.8948698126456 3.5 L 266.8948698126456 0 L 259.8948698126456 -3.5 L 259.8948698126456 -0.5 L 168.23076773102983 -0.5 Z"/><text text-anchor="middle" pointer-events="none" font-size="8px" fill="#000000" x="142.4474349063228" y="3" transform="rotate(180 142.4474349063228 0)" font-family="Helvetica Neue, Helvetica, Arial, sans-serif">RELATES_TO</text></g><g class="relationship" transform="translate(256.4889983869393 27.310499703793557) rotate(198.33262027939514)"><path class="b-outline" fill="#A5ABB6" stroke="none" d="M 25 0.5 L 67.78089457476871 0.5 L 67.78089457476871 -0.5 L 25 -0.5 Z M 119.34756022418277 0.5 L 162.12845479895148 0.5 L 162.12845479895148 3.5 L 169.12845479895148 0 L 162.12845479895148 -3.5 L 162.12845479895148 -0.5 L 119.34756022418277 -0.5 Z"/><text text-anchor="middle" pointer-events="none" font-size="8px" fill="#000000" x="93.56422739947574" y="3" transform="rotate(180 93.56422739947574 0)" font-family="Helvetica Neue, Helvetica, Arial, sans-serif">RELATES_TO</text></g><g class="relationship" transform="translate(256.4889983869393 27.310499703793557) rotate(461.58868117834936)"><path class="b-outline" fill="#A5ABB6" stroke="none" d="M 25 0.5 L 52.173308524655695 0.5 L 52.173308524655695 -0.5 L 25 -0.5 Z M 103.73997417406976 0.5 L 130.91328269872545 0.5 L 130.91328269872545 3.5 L 137.91328269872545 0 L 130.91328269872545 -3.5 L 130.91328269872545 -0.5 L 103.73997417406976 -0.5 Z"/><text text-anchor="middle" pointer-events="none" font-size="8px" fill="#000000" x="77.95664134936273" y="3" transform="rotate(180 77.95664134936273 0)" font-family="Helvetica Neue, Helvetica, Arial, sans-serif">RELATES_TO</text></g><g class="relationship" transform="translate(-64.25669778504998 156.14265242046727) rotate(522.0686432606683)"><path class="b-outline" fill="#A5ABB6" stroke="none" d="M 24.018736134675446,-6.953439040707552 L 24.277555179777966,-5.987513214418485 A 190.27430964590718 190.27430964590718 0 0 1 45.70550524238459,-10.426382822871915 L 45.5593022940241,-11.415637440192825 A 191.27430964590718 191.27430964590718 0 0 0 24.018736134675446,-6.953439040707552 Z M 97.10041220760274,-12.012402405314248 L 96.97715340749846,-11.020027844880104 A 190.27430964590718 190.27430964590718 0 0 1 118.50213545461935,-7.07848561403462 L 117.79298088884877,-4.163507088925602 L 125.42194444083549,-5.909621381421451 L 119.44767487564678,-10.96512364751331 L 118.73852030987621,-8.050145122404293 A 191.27430964590718 191.27430964590718 0 0 0 97.10041220760274,-12.012402405314248"/><text text-anchor="middle" pointer-events="none" font-size="8px" fill="#000000" x="71.31545198756525" y="-9.958166780899859" transform="rotate(180 71.31545198756525 -12.958166780899859)" font-family="Helvetica Neue, Helvetica, Arial, sans-serif">RELATES_TO</text></g><g class="relationship" transform="translate(-64.25669778504998 156.14265242046727) rotate(305.70372530501083)"><path class="b-outline" fill="#A5ABB6" stroke="none" d="M 25 0.5 L 87.63864212430626 0.5 L 87.63864212430626 -0.5 L 25 -0.5 Z M 139.20530777372034 0.5 L 201.84394989802658 0.5 L 201.84394989802658 3.5 L 208.84394989802658 0 L 201.84394989802658 -3.5 L 201.84394989802658 -0.5 L 139.20530777372034 -0.5 Z"/><text text-anchor="middle" pointer-events="none" font-size="8px" fill="#000000" x="113.42197494901329" y="3" font-family="Helvetica Neue, Helvetica, Arial, sans-serif">RELATES_TO</text></g></g><g class="layer nodes"><g class="node" aria-label="graph-node0" transform="translate(42.840910548348255,-185.3657707191441)"><circle class="b-outline" cx="0" cy="0" r="25" fill="#F79767" stroke="#f36924" stroke-width="2px"/><text class="caption" text-anchor="middle" pointer-events="none" x="0" y="5" font-size="10px" fill="#FFFFFF" font-family="Helvetica Neue, Helvetica, Arial, sans-serif">to…</text></g><g class="node" aria-label="graph-node1" transform="translate(-45.89666640263838,-140.9802822606551)"><circle class="b-outline" cx="0" cy="0" r="25" fill="#F79767" stroke="#f36924" stroke-width="2px"/><text class="caption" text-anchor="middle" pointer-events="none" x="0" y="5" font-size="10px" fill="#FFFFFF" font-family="Helvetica Neue, Helvetica, Arial, sans-serif"> Parliame…</text></g><g class="node" aria-label="graph-node2" transform="translate(181.3308744633011,-157.64431963110496)"><circle class="b-outline" cx="0" cy="0" r="25" fill="#F79767" stroke="#f36924" stroke-width="2px"/><text class="caption" text-anchor="middle" pointer-events="none" x="0" y="-5" font-size="10px" fill="#FFFFFF" font-family="Helvetica Neue, Helvetica, Arial, sans-serif"> By</text><text class="caption" text-anchor="middle" pointer-events="none" x="0" y="5" font-size="10px" fill="#FFFFFF" font-family="Helvetica Neue, Helvetica, Arial, sans-serif"> another</text><text class="caption" text-anchor="middle" pointer-events="none" x="0" y="15" font-size="10px" fill="#FFFFFF" font-family="Helvetica Neue, Helvetica, Arial, sans-serif">as…</text></g><g class="node" aria-label="graph-node3" transform="translate(-238.95775081002057,-47.29930926756103)"><circle class="b-outline" cx="0" cy="0" r="25" fill="#F79767" stroke="#f36924" stroke-width="2px"/><text class="caption" text-anchor="middle" pointer-events="none" x="0" y="-5" font-size="10px" fill="#FFFFFF" font-family="Helvetica Neue, Helvetica, Arial, sans-serif"> Let us</text><text class="caption" text-anchor="middle" pointer-events="none" x="0" y="5" font-size="10px" fill="#FFFFFF" font-family="Helvetica Neue, Helvetica, Arial, sans-serif"> see</text><text class="caption" text-anchor="middle" pointer-events="none" x="0" y="15" font-size="10px" fill="#FFFFFF" font-family="Helvetica Neue, Helvetica, Arial, sans-serif"> how…</text></g><g class="node" aria-label="graph-node4" transform="translate(-150.686009296142,47.371929388464984)"><circle class="b-outline" cx="0" cy="0" r="25" fill="#F79767" stroke="#f36924" stroke-width="2px"/><text class="caption" text-anchor="middle" pointer-events="none" x="0" y="-5" font-size="10px" fill="#FFFFFF" font-family="Helvetica Neue, Helvetica, Arial, sans-serif"> John</text><text class="caption" text-anchor="middle" pointer-events="none" x="0" y="5" font-size="10px" fill="#FFFFFF" font-family="Helvetica Neue, Helvetica, Arial, sans-serif"> travelled</text><text class="caption" text-anchor="middle" pointer-events="none" x="0" y="15" font-size="10px" fill="#FFFFFF" font-family="Helvetica Neue, Helvetica, Arial, sans-serif"> to t</text></g><g class="node" aria-label="graph-node5" transform="translate(34.820377288246355,160.8364230947927)"><circle class="b-outline" cx="0" cy="0" r="25" fill="#F79767" stroke="#f36924" stroke-width="2px"/><text class="caption" text-anchor="middle" pointer-events="none" x="0" y="-5" font-size="10px" fill="#FFFFFF" font-family="Helvetica Neue, Helvetica, Arial, sans-serif"> When</text><text class="caption" text-anchor="middle" pointer-events="none" x="0" y="5" font-size="10px" fill="#FFFFFF" font-family="Helvetica Neue, Helvetica, Arial, sans-serif"> was the</text><text class="caption" text-anchor="middle" pointer-events="none" x="0" y="15" font-size="10px" fill="#FFFFFF" font-family="Helvetica Neue, Helvetica, Arial, sans-serif"> gath…</text></g><g class="node" aria-label="graph-node6" transform="translate(129.35252724223452,132.01632486568627)"><circle class="b-outline" cx="0" cy="0" r="25" fill="#F79767" stroke="#f36924" stroke-width="2px"/><text class="caption" text-anchor="middle" pointer-events="none" x="0" y="-5" font-size="10px" fill="#FFFFFF" font-family="Helvetica Neue, Helvetica, Arial, sans-serif"> And how</text><text class="caption" text-anchor="middle" pointer-events="none" x="0" y="5" font-size="10px" fill="#FFFFFF" font-family="Helvetica Neue, Helvetica, Arial, sans-serif"> could the</text><text class="caption" text-anchor="middle" pointer-events="none" x="0" y="15" font-size="10px" fill="#FFFFFF" font-family="Helvetica Neue, Helvetica, Arial, sans-serif"> A</text></g><g class="node" aria-label="graph-node7" transform="translate(56.29708951536094,65.34212242744292)"><circle class="b-outline" cx="0" cy="0" r="25" fill="#F79767" stroke="#f36924" stroke-width="2px"/><text class="caption" text-anchor="middle" pointer-events="none" x="0" y="-5" font-size="10px" fill="#FFFFFF" font-family="Helvetica Neue, Helvetica, Arial, sans-serif"> Daniel</text><text class="caption" text-anchor="middle" pointer-events="none" x="0" y="5" font-size="10px" fill="#FFFFFF" font-family="Helvetica Neue, Helvetica, Arial, sans-serif"> went</text><text class="caption" text-anchor="middle" pointer-events="none" x="0" y="15" font-size="10px" fill="#FFFFFF" font-family="Helvetica Neue, Helvetica, Arial, sans-serif">to…</text></g><g class="node" aria-label="graph-node8" transform="translate(157.20061588281774,36.8399930660727)"><circle class="b-outline" cx="0" cy="0" r="25" fill="#F79767" stroke="#f36924" stroke-width="2px"/><text class="caption" text-anchor="middle" pointer-events="none" x="0" y="-5" font-size="10px" fill="#FFFFFF" font-family="Helvetica Neue, Helvetica, Arial, sans-serif"> In his</text><text class="caption" text-anchor="middle" pointer-events="none" x="0" y="5" font-size="10px" fill="#FFFFFF" font-family="Helvetica Neue, Helvetica, Arial, sans-serif"> eyes it</text><text class="caption" text-anchor="middle" pointer-events="none" x="0" y="15" font-size="10px" fill="#FFFFFF" font-family="Helvetica Neue, Helvetica, Arial, sans-serif"> was </text></g><g class="node" aria-label="graph-node9" transform="translate(186.04503295909052,-59.1753602378095)"><circle class="b-outline" cx="0" cy="0" r="25" fill="#F79767" stroke="#f36924" stroke-width="2px"/><text class="caption" text-anchor="middle" pointer-events="none" x="0" y="-5" font-size="10px" fill="#FFFFFF" font-family="Helvetica Neue, Helvetica, Arial, sans-serif"> John</text><text class="caption" text-anchor="middle" pointer-events="none" x="0" y="5" font-size="10px" fill="#FFFFFF" font-family="Helvetica Neue, Helvetica, Arial, sans-serif"> moved to</text><text class="caption" text-anchor="middle" pointer-events="none" x="0" y="15" font-size="10px" fill="#FFFFFF" font-family="Helvetica Neue, Helvetica, Arial, sans-serif"> the b</text></g><g class="node" aria-label="graph-node10" transform="translate(125.9007953799302,-239.54784099906587)"><circle class="b-outline" cx="0" cy="0" r="25" fill="#F79767" stroke="#f36924" stroke-width="2px"/><text class="caption" text-anchor="middle" pointer-events="none" x="0" y="-5" font-size="10px" fill="#FFFFFF" font-family="Helvetica Neue, Helvetica, Arial, sans-serif"> The</text><text class="caption" text-anchor="middle" pointer-events="none" x="0" y="5" font-size="10px" fill="#FFFFFF" font-family="Helvetica Neue, Helvetica, Arial, sans-serif"> doctrine</text><text class="caption" text-anchor="middle" pointer-events="none" x="0" y="15" font-size="10px" fill="#FFFFFF" font-family="Helvetica Neue, Helvetica, Arial, sans-serif"> that t</text></g><g class="node" aria-label="graph-node11" transform="translate(72.21323084894058,-33.749294440225825)"><circle class="b-outline" cx="0" cy="0" r="25" fill="#57C7E3" stroke="#23b3d7" stroke-width="2px"/><text class="caption" text-anchor="middle" pointer-events="none" x="0" y="5" font-size="10px" fill="#2A2C34" font-family="Helvetica Neue, Helvetica, Arial, sans-serif"> king</text></g><g class="node" aria-label="graph-node12" transform="translate(-312.0089973703642,-240.714551180891)"><circle class="b-outline" cx="0" cy="0" r="25" fill="#57C7E3" stroke="#23b3d7" stroke-width="2px"/><text class="caption" text-anchor="middle" pointer-events="none" x="0" y="5" font-size="10px" fill="#2A2C34" font-family="Helvetica Neue, Helvetica, Arial, sans-serif"> eadward</text></g><g class="node" aria-label="graph-node13" transform="translate(-256.1181584426164,-145.1017702686404)"><circle class="b-outline" cx="0" cy="0" r="25" fill="#57C7E3" stroke="#23b3d7" stroke-width="2px"/><text class="caption" text-anchor="middle" pointer-events="none" x="0" y="5" font-size="10px" fill="#2A2C34" font-family="Helvetica Neue, Helvetica, Arial, sans-serif"> harold</text></g><g class="node" aria-label="graph-node14" transform="translate(-400.82445788694633,-115.78879789884849)"><circle class="b-outline" cx="0" cy="0" r="25" fill="#57C7E3" stroke="#23b3d7" stroke-width="2px"/><text class="caption" text-anchor="middle" pointer-events="none" x="0" y="5" font-size="10px" fill="#2A2C34" font-family="Helvetica Neue, Helvetica, Arial, sans-serif"> godwine</text></g><g class="node" aria-label="graph-node15" transform="translate(-26.729216357452454,-43.32984188612896)"><circle class="b-outline" cx="0" cy="0" r="25" fill="#57C7E3" stroke="#23b3d7" stroke-width="2px"/><text class="caption" text-anchor="middle" pointer-events="none" x="0" y="5" font-size="10px" fill="#2A2C34" font-family="Helvetica Neue, Helvetica, Arial, sans-serif"> john</text></g><g class="node" aria-label="graph-node16" transform="translate(-331.2355469491194,31.941148370267804)"><circle class="b-outline" cx="0" cy="0" r="25" fill="#57C7E3" stroke="#23b3d7" stroke-width="2px"/><text class="caption" text-anchor="middle" pointer-events="none" x="0" y="5" font-size="10px" fill="#2A2C34" font-family="Helvetica Neue, Helvetica, Arial, sans-serif"> hallway</text></g><g class="node" aria-label="graph-node17" transform="translate(-206.69795743093138,202.2360284809209)"><circle class="b-outline" cx="0" cy="0" r="25" fill="#57C7E3" stroke="#23b3d7" stroke-width="2px"/><text class="caption" text-anchor="middle" pointer-events="none" x="0" y="5" font-size="10px" fill="#2A2C34" font-family="Helvetica Neue, Helvetica, Arial, sans-serif"> mary</text></g><g class="node" aria-label="graph-node18" transform="translate(-64.25669778504998,156.14265242046727)"><circle class="b-outline" cx="0" cy="0" r="25" fill="#57C7E3" stroke="#23b3d7" stroke-width="2px"/><text class="caption" text-anchor="middle" pointer-events="none" x="0" y="5" font-size="10px" fill="#2A2C34" font-family="Helvetica Neue, Helvetica, Arial, sans-serif"> bathroom</text></g><g class="node" aria-label="graph-node19" transform="translate(223.76226110502873,186.9027875705813)"><circle class="b-outline" cx="0" cy="0" r="25" fill="#57C7E3" stroke="#23b3d7" stroke-width="2px"/><text class="caption" text-anchor="middle" pointer-events="none" x="0" y="5" font-size="10px" fill="#2A2C34" font-family="Helvetica Neue, Helvetica, Arial, sans-serif"> throne</text></g><g class="node" aria-label="graph-node20" transform="translate(101.11625430104844,233.62109645835577)"><circle class="b-outline" cx="0" cy="0" r="25" fill="#57C7E3" stroke="#23b3d7" stroke-width="2px"/><text class="caption" text-anchor="middle" pointer-events="none" x="0" y="5" font-size="10px" fill="#2A2C34" font-family="Helvetica Neue, Helvetica, Arial, sans-serif"> daniel</text></g><g class="node" aria-label="graph-node21" transform="translate(256.4889983869393,27.310499703793557)"><circle class="b-outline" cx="0" cy="0" r="25" fill="#57C7E3" stroke="#23b3d7" stroke-width="2px"/><text class="caption" text-anchor="middle" pointer-events="none" x="0" y="5" font-size="10px" fill="#2A2C34" font-family="Helvetica Neue, Helvetica, Arial, sans-serif"> bedroom</text></g><g class="node" aria-label="graph-node22" transform="translate(230.74977987161904,-349.9019035952224)"><circle class="b-outline" cx="0" cy="0" r="25" fill="#57C7E3" stroke="#23b3d7" stroke-width="2px"/><text class="caption" text-anchor="middle" pointer-events="none" x="0" y="-5" font-size="10px" fill="#2A2C34" font-family="Helvetica Neue, Helvetica, Arial, sans-serif"> man</text><text class="caption" text-anchor="middle" pointer-events="none" x="0" y="5" font-size="10px" fill="#2A2C34" font-family="Helvetica Neue, Helvetica, Arial, sans-serif"> of
the</text><text class="caption" text-anchor="middle" pointer-events="none" x="0" y="15" font-size="10px" fill="#2A2C34" font-family="Helvetica Neue, Helvetica, Arial, sans-serif"> elev…</text></g></g></svg>